<svg xmlns="http://www.w3.org/2000/svg" version="1.1" xmlns:xlink="http://www.w3.org/1999/xlink" xmlns:svgjs="http://svgjs.dev/svgjs" width="1500" height="1500" viewBox="0 0 1500 1500"><rect width="1500" height="1500" fill="#000000"></rect><g transform="matrix(0.6666666666666666,0,0,0.6666666666666666,249.39393939393932,703.5917368958716)"><svg viewBox="0 0 396 37" data-background-color="#001f3f" preserveAspectRatio="xMidYMid meet" height="140" width="1500" xmlns="http://www.w3.org/2000/svg" xmlns:xlink="http://www.w3.org/1999/xlink"><g id="tight-bounds" transform="matrix(1,0,0,1,0.24000000000003752,-0.10243855514906386)"><svg viewBox="0 0 395.5199999999999 37.204877110298106" height="37.204877110298106" width="395.5199999999999"><g><svg viewBox="0 0 460.9746152007223 43.36191320163287" height="37.204877110298106" width="395.5199999999999"><g><rect width="3.8909672457887337" height="43.36191320163287" x="51.37786982459663" y="0" fill="#ffffff" opacity="1" stroke-width="0" stroke="transparent" fill-opacity="1" class="rect-qz-0" data-fill-palette-color="primary" rx="1%" id="qz-0" data-palette-color="#ffffff"></rect></g><g transform="matrix(1,0,0,1,65.45461520072237,0.10786545572545236)"><svg viewBox="0 0 395.52 43.14618229018197" height="43.14618229018197" width="395.52"><g id="textblocktransform"><svg viewBox="0 0 395.52 43.14618229018197" height="43.14618229018197" width="395.52" id="textblock"><g><svg viewBox="0 0 395.52 43.14618229018197" height="43.14618229018197" width="395.52"><g transform="matrix(1,0,0,1,0,0)"><svg width="395.52" viewBox="0.9 -32.03 385.37 42.040850697216996" height="43.14618229018197" data-palette-color="#ffffff"><path d="M16.33-23.1Q19.36-23.1 21.75-21.67 24.15-20.24 25.51-17.57 26.88-14.89 26.88-11.28L26.88-11.28Q26.88-7.67 25.51-4.99 24.15-2.32 21.75-0.89 19.36 0.54 16.33 0.54L16.33 0.54Q11.74 0.54 8.59-3.49L8.59-3.49 8.59 6.15 12.79 6.15Q13.62 6.15 13.98 6.53 14.33 6.91 14.33 7.81L14.33 7.81Q14.33 8.72 13.98 9.09 13.62 9.47 12.79 9.47L12.79 9.47 2.44 9.47Q1.61 9.47 1.26 9.09 0.9 8.72 0.9 7.81L0.9 7.81Q0.9 6.91 1.26 6.53 1.61 6.15 2.44 6.15L2.44 6.15 4.93 6.15 4.93-19.24 2.93-19.24Q2.1-19.24 1.75-19.62 1.39-20 1.39-20.9L1.39-20.9Q1.39-21.8 1.75-22.18 2.1-22.56 2.93-22.56L2.93-22.56 6.81-22.56Q7.64-22.56 8-22.18 8.35-21.8 8.35-20.9L8.35-20.9 8.35-18.95Q9.89-20.95 11.91-22.02 13.94-23.1 16.33-23.1L16.33-23.1ZM16.09-19.48Q13.92-19.48 12.22-18.51 10.52-17.53 9.56-15.67 8.59-13.82 8.59-11.28L8.59-11.28Q8.59-8.74 9.56-6.88 10.52-5.03 12.22-4.05 13.92-3.08 16.09-3.08L16.09-3.08Q18.26-3.08 19.82-4.11 21.39-5.15 22.2-7.01 23.02-8.86 23.02-11.28L23.02-11.28Q23.02-13.7 22.2-15.55 21.39-17.41 19.82-18.44 18.26-19.48 16.09-19.48L16.09-19.48ZM44.97-23.1Q48.31-23.1 51-21.58 53.68-20.07 55.21-17.37 56.74-14.67 56.74-11.28L56.74-11.28Q56.74-7.89 55.21-5.19 53.68-2.49 51-0.98 48.31 0.54 44.97 0.54L44.97 0.54Q41.62 0.54 38.94-0.98 36.25-2.49 34.73-5.19 33.2-7.89 33.2-11.28L33.2-11.28Q33.2-14.67 34.73-17.37 36.25-20.07 38.94-21.58 41.62-23.1 44.97-23.1L44.97-23.1ZM44.97-19.48Q42.6-19.48 40.81-18.44 39.01-17.41 38.03-15.54 37.06-13.67 37.06-11.28L37.06-11.28Q37.06-8.89 38.03-7.02 39.01-5.15 40.81-4.11 42.6-3.08 44.97-3.08L44.97-3.08Q47.34-3.08 49.13-4.11 50.93-5.15 51.9-7.02 52.88-8.89 52.88-11.28L52.88-11.28Q52.88-13.67 51.9-15.54 50.93-17.41 49.13-18.44 47.34-19.48 44.97-19.48L44.97-19.48ZM75.58-32.03Q76.41-32.03 76.77-31.65 77.12-31.27 77.12-30.37L77.12-30.37 77.12-3.32 84.96-3.32Q85.79-3.32 86.14-2.94 86.49-2.56 86.49-1.66L86.49-1.66Q86.49-0.76 86.14-0.38 85.79 0 84.96 0L84.96 0 65.82 0Q64.99 0 64.63-0.38 64.28-0.76 64.28-1.66L64.28-1.66Q64.28-2.56 64.63-2.94 64.99-3.32 65.82-3.32L65.82-3.32 73.46-3.32 73.46-28.71 66.79-28.71Q65.96-28.71 65.61-29.09 65.25-29.47 65.25-30.37L65.25-30.37Q65.25-31.27 65.61-31.65 65.96-32.03 66.79-32.03L66.79-32.03 75.58-32.03ZM117.16-22.56Q117.99-22.56 118.34-22.18 118.69-21.8 118.69-20.9L118.69-20.9Q118.69-20 118.34-19.62 117.99-19.24 117.16-19.24L117.16-19.24 115.64-19.24 105.66 1.22Q104.07 4.47 102.56 6.32 101.04 8.18 99.15 9.05 97.26 9.91 94.55 10.01L94.55 10.01Q93.69 10.03 93.23 9.58 92.77 9.13 92.77 7.98L92.77 7.98Q92.77 6.4 94.06 6.32L94.06 6.32Q96.4 6.2 97.78 5.54 99.16 4.88 100.32 3.28 101.48 1.68 103.17-1.71L103.17-1.71 94.23-19.24 92.69-19.24Q91.86-19.24 91.51-19.62 91.15-20 91.15-20.9L91.15-20.9Q91.15-21.8 91.51-22.18 91.86-22.56 92.69-22.56L92.69-22.56 101.34-22.56Q102.17-22.56 102.52-22.18 102.87-21.8 102.87-20.9L102.87-20.9Q102.87-20 102.52-19.62 102.17-19.24 101.34-19.24L101.34-19.24 98.21-19.24 105.1-5.52 111.66-19.24 109.49-19.24Q108.66-19.24 108.31-19.62 107.95-20 107.95-20.9L107.95-20.9Q107.95-21.8 108.31-22.18 108.66-22.56 109.49-22.56L109.49-22.56 117.16-22.56ZM136.24-23.1Q139.27-23.1 141.66-21.67 144.06-20.24 145.42-17.57 146.79-14.89 146.79-11.28L146.79-11.28Q146.79-7.67 145.42-4.99 144.06-2.32 141.66-0.89 139.27 0.54 136.24 0.54L136.24 0.54Q131.66 0.54 128.51-3.49L128.51-3.49 128.51 6.15 132.7 6.15Q133.53 6.15 133.89 6.53 134.24 6.91 134.24 7.81L134.24 7.81Q134.24 8.72 133.89 9.09 133.53 9.47 132.7 9.47L132.7 9.47 122.35 9.47Q121.52 9.47 121.17 9.09 120.82 8.72 120.82 7.81L120.82 7.81Q120.82 6.91 121.17 6.53 121.52 6.15 122.35 6.15L122.35 6.15 124.84 6.15 124.84-19.24 122.84-19.24Q122.01-19.24 121.66-19.62 121.3-20 121.3-20.9L121.3-20.9Q121.3-21.8 121.66-22.18 122.01-22.56 122.84-22.56L122.84-22.56 126.72-22.56Q127.55-22.56 127.91-22.18 128.26-21.8 128.26-20.9L128.26-20.9 128.26-18.95Q129.8-20.95 131.83-22.02 133.85-23.1 136.24-23.1L136.24-23.1ZM136-19.48Q133.83-19.48 132.13-18.51 130.43-17.53 129.47-15.67 128.51-13.82 128.51-11.28L128.51-11.28Q128.51-8.74 129.47-6.88 130.43-5.03 132.13-4.05 133.83-3.08 136-3.08L136-3.08Q138.17-3.08 139.74-4.11 141.3-5.15 142.12-7.01 142.93-8.86 142.93-11.28L142.93-11.28Q142.93-13.7 142.12-15.55 141.3-17.41 139.74-18.44 138.17-19.48 136-19.48L136-19.48ZM157.68-32.03Q158.51-32.03 158.86-31.65 159.22-31.27 159.22-30.37L159.22-30.37 159.22-18.21Q160.8-20.58 162.89-21.84 164.98-23.1 167.39-23.1L167.39-23.1Q169.62-23.1 171.25-22.13 172.89-21.17 173.77-19.36 174.65-17.55 174.65-15.14L174.65-15.14 174.65-3.32 176.65-3.32Q177.48-3.32 177.83-2.94 178.19-2.56 178.19-1.66L178.19-1.66Q178.19-0.76 177.83-0.38 177.48 0 176.65 0L176.65 0 168.74 0Q167.91 0 167.55-0.38 167.2-0.76 167.2-1.66L167.2-1.66Q167.2-2.56 167.55-2.94 167.91-3.32 168.74-3.32L168.74-3.32 170.98-3.32 170.98-14.77Q170.98-16.94 169.98-18.21 168.98-19.48 167.03-19.48L167.03-19.48Q164.95-19.48 163.16-18.29 161.36-17.09 160.29-14.99 159.22-12.89 159.22-10.3L159.22-10.3 159.22-3.32 161.46-3.32Q162.29-3.32 162.65-2.94 163-2.56 163-1.66L163-1.66Q163-0.76 162.65-0.38 162.29 0 161.46 0L161.46 0 153.55 0Q152.72 0 152.37-0.38 152.01-0.76 152.01-1.66L152.01-1.66Q152.01-2.56 152.37-2.94 152.72-3.32 153.55-3.32L153.55-3.32 155.55-3.32 155.55-28.71 153.31-28.71Q152.48-28.71 152.12-29.09 151.77-29.47 151.77-30.37L151.77-30.37Q151.77-31.27 152.12-31.65 152.48-32.03 153.31-32.03L153.31-32.03 157.68-32.03ZM194.86-23.1Q198.2-23.1 200.89-21.58 203.57-20.07 205.1-17.37 206.63-14.67 206.63-11.28L206.63-11.28Q206.63-7.89 205.1-5.19 203.57-2.49 200.89-0.98 198.2 0.54 194.86 0.54L194.86 0.54Q191.51 0.54 188.83-0.98 186.14-2.49 184.62-5.19 183.09-7.89 183.09-11.28L183.09-11.28Q183.09-14.67 184.62-17.37 186.14-20.07 188.83-21.58 191.51-23.1 194.86-23.1L194.86-23.1ZM194.86-19.48Q192.49-19.48 190.7-18.44 188.9-17.41 187.92-15.54 186.95-13.67 186.95-11.28L186.95-11.28Q186.95-8.89 187.92-7.02 188.9-5.15 190.7-4.11 192.49-3.08 194.86-3.08L194.86-3.08Q197.23-3.08 199.02-4.11 200.82-5.15 201.79-7.02 202.77-8.89 202.77-11.28L202.77-11.28Q202.77-13.67 201.79-15.54 200.82-17.41 199.02-18.44 197.23-19.48 194.86-19.48L194.86-19.48ZM227.59-23.1Q229.82-23.1 231.45-22.13 233.09-21.17 233.97-19.36 234.85-17.55 234.85-15.14L234.85-15.14 234.85-3.32 236.85-3.32Q237.68-3.32 238.03-2.94 238.39-2.56 238.39-1.66L238.39-1.66Q238.39-0.76 238.03-0.38 237.68 0 236.85 0L236.85 0 228.94 0Q228.11 0 227.75-0.38 227.4-0.76 227.4-1.66L227.4-1.66Q227.4-2.56 227.75-2.94 228.11-3.32 228.94-3.32L228.94-3.32 231.18-3.32 231.18-14.77Q231.18-16.94 230.18-18.21 229.18-19.48 227.23-19.48L227.23-19.48Q225.15-19.48 223.36-18.29 221.56-17.09 220.49-14.99 219.42-12.89 219.42-10.3L219.42-10.3 219.42-3.32 221.66-3.32Q222.49-3.32 222.85-2.94 223.2-2.56 223.2-1.66L223.2-1.66Q223.2-0.76 222.85-0.38 222.49 0 221.66 0L221.66 0 213.75 0Q212.92 0 212.57-0.38 212.21-0.76 212.21-1.66L212.21-1.66Q212.21-2.56 212.57-2.94 212.92-3.32 213.75-3.32L213.75-3.32 215.75-3.32 215.75-19.24 213.26-19.24Q212.43-19.24 212.08-19.62 211.73-20 211.73-20.9L211.73-20.9Q211.73-21.8 212.08-22.18 212.43-22.56 213.26-22.56L213.26-22.56 217.63-22.56Q218.46-22.56 218.82-22.18 219.17-21.8 219.17-20.9L219.17-20.9 219.17-17.97Q220.78-20.46 222.94-21.78 225.1-23.1 227.59-23.1L227.59-23.1ZM267.05-22.56Q267.88-22.56 268.23-22.18 268.58-21.8 268.58-20.9L268.58-20.9Q268.58-20 268.23-19.62 267.88-19.24 267.05-19.24L267.05-19.24 265.53-19.24 255.55 1.22Q253.96 4.47 252.45 6.32 250.93 8.18 249.04 9.05 247.15 9.91 244.44 10.01L244.44 10.01Q243.58 10.03 243.12 9.58 242.66 9.13 242.66 7.98L242.66 7.98Q242.66 6.4 243.95 6.32L243.95 6.32Q246.29 6.2 247.67 5.54 249.05 4.88 250.21 3.28 251.37 1.68 253.06-1.71L253.06-1.71 244.12-19.24 242.58-19.24Q241.75-19.24 241.4-19.62 241.04-20 241.04-20.9L241.04-20.9Q241.04-21.8 241.4-22.18 241.75-22.56 242.58-22.56L242.58-22.56 251.23-22.56Q252.06-22.56 252.41-22.18 252.76-21.8 252.76-20.9L252.76-20.9Q252.76-20 252.41-19.62 252.06-19.24 251.23-19.24L251.23-19.24 248.1-19.24 254.98-5.52 261.55-19.24 259.38-19.24Q258.55-19.24 258.2-19.62 257.84-20 257.84-20.9L257.84-20.9Q257.84-21.8 258.2-22.18 258.55-22.56 259.38-22.56L259.38-22.56 267.05-22.56ZM316.11-23.1Q319.14-23.1 321.53-21.67 323.93-20.24 325.29-17.57 326.66-14.89 326.66-11.28L326.66-11.28Q326.66-7.67 325.29-4.99 323.93-2.32 321.53-0.89 319.14 0.54 316.11 0.54L316.11 0.54Q311.52 0.54 308.37-3.49L308.37-3.49 308.37 6.15 312.57 6.15Q313.4 6.15 313.76 6.53 314.11 6.91 314.11 7.81L314.11 7.81Q314.11 8.72 313.76 9.09 313.4 9.47 312.57 9.47L312.57 9.47 302.22 9.47Q301.39 9.47 301.04 9.09 300.68 8.72 300.68 7.81L300.68 7.81Q300.68 6.91 301.04 6.53 301.39 6.15 302.22 6.15L302.22 6.15 304.71 6.15 304.71-19.24 302.71-19.24Q301.88-19.24 301.53-19.62 301.17-20 301.17-20.9L301.17-20.9Q301.17-21.8 301.53-22.18 301.88-22.56 302.71-22.56L302.71-22.56 306.59-22.56Q307.42-22.56 307.78-22.18 308.13-21.8 308.13-20.9L308.13-20.9 308.13-18.95Q309.67-20.95 311.69-22.02 313.72-23.1 316.11-23.1L316.11-23.1ZM315.87-19.48Q313.7-19.48 312-18.51 310.3-17.53 309.34-15.67 308.37-13.82 308.37-11.28L308.37-11.28Q308.37-8.74 309.34-6.88 310.3-5.03 312-4.05 313.7-3.08 315.87-3.08L315.87-3.08Q318.04-3.08 319.6-4.11 321.17-5.15 321.98-7.01 322.8-8.86 322.8-11.28L322.8-11.28Q322.8-13.7 321.98-15.55 321.17-17.41 319.6-18.44 318.04-19.48 315.87-19.48L315.87-19.48ZM344.85-23.1Q349.44-23.1 351.73-21.04 354.03-18.99 354.03-14.97L354.03-14.97 354.03-5.25Q354.03-3.32 355.64-3.32L355.64-3.32 356.49-3.32Q357.32-3.32 357.68-2.94 358.03-2.56 358.03-1.66L358.03-1.66Q358.03-0.76 357.68-0.38 357.32 0 356.49 0L356.49 0 354.93 0Q353.34 0 352.21-0.79 351.07-1.59 350.73-3.13L350.73-3.13Q348.73-1.37 346.4-0.42 344.06 0.54 341.45 0.54L341.45 0.54Q338.99 0.54 337.09-0.31 335.2-1.15 334.13-2.76 333.05-4.37 333.05-6.59L333.05-6.59Q333.05-10.45 335.81-12.29 338.57-14.14 342.94-14.14L342.94-14.14Q346.82-14.14 350.36-12.89L350.36-12.89 350.36-14.97Q350.36-17.33 349.03-18.44 347.7-19.56 344.75-19.56L344.75-19.56Q342.92-19.56 340.94-19.04 338.96-18.53 337.18-17.63L337.18-17.63Q336.76-17.41 336.42-17.41L336.42-17.41Q335.62-17.41 335.08-18.58L335.08-18.58Q334.81-19.17 334.81-19.56L334.81-19.56Q334.81-20.41 335.71-20.87L335.71-20.87Q337.77-21.95 340.12-22.52 342.48-23.1 344.85-23.1L344.85-23.1ZM342.97-10.69Q340.16-10.69 338.53-9.73 336.91-8.76 336.91-6.67L336.91-6.67Q336.91-4.88 338.14-3.89 339.38-2.91 341.6-2.91L341.6-2.91Q346.46-2.91 350.36-6.93L350.36-6.93 350.36-9.59Q348.7-10.13 346.8-10.41 344.89-10.69 342.97-10.69L342.97-10.69ZM375.36-32.03Q376.19-32.03 376.54-31.65 376.9-31.27 376.9-30.37L376.9-30.37 376.9-3.32 384.74-3.32Q385.57-3.32 385.92-2.94 386.27-2.56 386.27-1.66L386.27-1.66Q386.27-0.76 385.92-0.38 385.57 0 384.74 0L384.74 0 365.6 0Q364.76 0 364.41-0.38 364.06-0.76 364.06-1.66L364.06-1.66Q364.06-2.56 364.41-2.94 364.76-3.32 365.6-3.32L365.6-3.32 373.24-3.32 373.24-28.71 366.57-28.71Q365.74-28.71 365.39-29.09 365.03-29.47 365.03-30.37L365.03-30.37Q365.03-31.27 365.39-31.65 365.74-32.03 366.57-32.03L366.57-32.03 375.36-32.03Z" opacity="1" transform="matrix(1,0,0,1,0,0)" fill="#ffffff" class="wordmark-text-0" data-fill-palette-color="primary" id="text-0"></path></svg></g></svg></g></svg></g></svg></g><g transform="matrix(1,0,0,1,0,0.10786545572545236)"><svg viewBox="0 0 41.19209169425963 43.14618229018197" height="43.14618229018197" width="41.19209169425963"><g><svg version="1.0" xmlns="http://www.w3.org/2000/svg" xmlns:xlink="http://www.w3.org/1999/xlink" x="0" y="0" viewBox="0 0 95.471 100" enable-background="new 0 0 95.471 100" xml:space="preserve" width="41.19209169425963" height="43.14618229018197" class="icon-icon-0" data-fill-palette-color="accent" id="icon-0"><path d="M47.735 0c-0.083 2.825-1.738 13.412-19.799 30.934C10.554 47.797 2.439 49.824 0 50c2.439 0.178 10.554 2.204 27.936 19.066C45.997 86.589 47.652 97.177 47.735 100c0.083-2.823 1.739-13.411 19.798-30.934C84.917 52.204 93.031 50.178 95.471 50c-2.439-0.176-10.554-2.203-27.938-19.066C49.475 13.412 47.819 2.825 47.735 0z" fill="#ffffff" data-fill-palette-color="accent"></path></svg></g></svg></g></svg></g><defs></defs></svg><rect width="395.5199999999999" height="37.204877110298106" fill="none" stroke="none" visibility="hidden"></rect></g></svg></g></svg>