<svg width="360" height="168" viewBox="0 0 360 168" fill="none" xmlns="http://www.w3.org/2000/svg">
<path d="M175.045 105.58C173.386 105.58 171.886 105.273 170.545 104.659C169.205 104.034 168.142 103.131 167.358 101.949C166.585 100.767 166.199 99.3182 166.199 97.6023C166.199 96.125 166.483 94.9091 167.051 93.9545C167.619 93 168.386 92.2443 169.352 91.6875C170.318 91.1307 171.398 90.7102 172.591 90.4261C173.784 90.142 175 89.9261 176.239 89.7784C177.807 89.5966 179.08 89.4489 180.057 89.3352C181.034 89.2102 181.744 89.0114 182.188 88.7386C182.631 88.4659 182.852 88.0227 182.852 87.4091V87.2898C182.852 85.8011 182.432 84.6477 181.591 83.8295C180.761 83.0114 179.523 82.6023 177.875 82.6023C176.159 82.6023 174.807 82.983 173.818 83.7443C172.841 84.4943 172.165 85.3295 171.79 86.25L167 85.1591C167.568 83.5682 168.398 82.2841 169.489 81.3068C170.591 80.3182 171.858 79.6023 173.29 79.1591C174.722 78.7045 176.227 78.4773 177.807 78.4773C178.852 78.4773 179.96 78.6023 181.131 78.8523C182.313 79.0909 183.415 79.5341 184.438 80.1818C185.472 80.8295 186.318 81.7557 186.977 82.9602C187.636 84.1534 187.966 85.7045 187.966 87.6136V105H182.989V101.42H182.784C182.455 102.08 181.96 102.727 181.301 103.364C180.642 104 179.795 104.528 178.761 104.949C177.727 105.369 176.489 105.58 175.045 105.58ZM176.153 101.489C177.563 101.489 178.767 101.21 179.767 100.653C180.778 100.097 181.545 99.3693 182.068 98.4716C182.602 97.5625 182.869 96.5909 182.869 95.5568V92.1818C182.688 92.3636 182.335 92.5341 181.812 92.6932C181.301 92.8409 180.716 92.9716 180.057 93.0852C179.398 93.1875 178.756 93.2841 178.131 93.375C177.506 93.4545 176.983 93.5227 176.562 93.5795C175.574 93.7045 174.67 93.9148 173.852 94.2102C173.045 94.5057 172.398 94.9318 171.909 95.4886C171.432 96.0341 171.193 96.7614 171.193 97.6705C171.193 98.9318 171.659 99.8864 172.591 100.534C173.523 101.17 174.71 101.489 176.153 101.489ZM199.851 70.0909V105H194.754V70.0909H199.851Z" fill="black"/>
<path d="M111.045 53.5455C108.886 53.5455 106.966 52.9659 105.284 51.8068C103.602 50.6364 102.278 49.0284 101.312 46.983C100.347 44.9375 99.8636 42.608 99.8636 39.9943C99.8636 37.3693 100.347 35.0398 101.312 33.0057C102.278 30.9602 103.602 29.3523 105.284 28.1818C106.966 27.0114 108.886 26.4261 111.045 26.4261C113.205 26.4261 115.125 27.0114 116.807 28.1818C118.489 29.3523 119.813 30.9602 120.778 33.0057C121.744 35.0511 122.227 37.3807 122.227 39.9943C122.227 42.608 121.744 44.9375 120.778 46.983C119.813 49.0284 118.489 50.6364 116.807 51.8068C115.125 52.9659 113.205 53.5455 111.045 53.5455ZM111.045 51.6193C112.875 51.6193 114.472 51.1023 115.835 50.0682C117.21 49.0341 118.273 47.6364 119.023 45.875C119.784 44.1136 120.165 42.1534 120.165 39.9943C120.165 37.8352 119.784 35.8807 119.023 34.1307C118.261 32.3693 117.199 30.9716 115.835 29.9375C114.472 28.892 112.875 28.3693 111.045 28.3693C109.216 28.3693 107.619 28.892 106.256 29.9375C104.892 30.9716 103.83 32.3693 103.068 34.1307C102.307 35.8807 101.926 37.8352 101.926 39.9943C101.926 42.1534 102.301 44.1136 103.051 45.875C103.812 47.6364 104.875 49.0341 106.239 50.0682C107.614 51.1023 109.216 51.6193 111.045 51.6193ZM131.47 18.0909V53H129.391V18.0909H131.47ZM141.749 62.8182C141.226 62.8182 140.709 62.7614 140.197 62.6477C139.686 62.5341 139.226 62.3864 138.817 62.2045L139.43 60.3807C140.499 60.7898 141.464 60.9375 142.328 60.8239C143.203 60.7102 143.976 60.3125 144.646 59.6307C145.317 58.9489 145.885 57.9489 146.351 56.6307L147.544 53.358L137.947 26.8182H140.18L148.499 50.3239H148.669L156.987 26.8182H159.22L148.175 57.4489C147.754 58.6307 147.226 59.6193 146.589 60.4148C145.953 61.2102 145.226 61.8068 144.408 62.2045C143.601 62.6136 142.714 62.8182 141.749 62.8182ZM165.719 62.8182V26.8182H167.747V32.6648H168.003C168.412 31.5398 168.986 30.5057 169.724 29.5625C170.474 28.6193 171.401 27.8636 172.503 27.2955C173.616 26.7159 174.923 26.4261 176.423 26.4261C178.537 26.4261 180.378 27.0057 181.946 28.1648C183.514 29.3239 184.73 30.9261 185.594 32.9716C186.457 35.0057 186.889 37.3409 186.889 39.9773C186.889 42.6136 186.452 44.9545 185.577 47C184.713 49.0341 183.497 50.6364 181.929 51.8068C180.372 52.9659 178.548 53.5455 176.457 53.5455C174.969 53.5455 173.662 53.2614 172.537 52.6932C171.423 52.125 170.486 51.3693 169.724 50.4261C168.974 49.4716 168.401 48.4261 168.003 47.2898H167.798V62.8182H165.719ZM167.764 39.9602C167.764 42.1875 168.105 44.1818 168.787 45.9432C169.469 47.6932 170.446 49.0795 171.719 50.1023C172.991 51.1136 174.509 51.6193 176.27 51.6193C178.054 51.6193 179.582 51.108 180.855 50.0852C182.139 49.0511 183.116 47.6534 183.787 45.892C184.469 44.1307 184.81 42.1534 184.81 39.9602C184.81 37.767 184.474 35.7955 183.804 34.0455C183.134 32.2955 182.162 30.9148 180.889 29.9034C179.616 28.8807 178.077 28.3693 176.27 28.3693C174.486 28.3693 172.957 28.875 171.685 29.8864C170.423 30.8864 169.452 32.2614 168.77 34.0114C168.099 35.75 167.764 37.733 167.764 39.9602ZM196.158 36.0227V53H194.078V18.0909H196.158V30.9602H196.362C196.976 29.5966 197.953 28.5114 199.294 27.7045C200.646 26.8864 202.266 26.4773 204.152 26.4773C205.913 26.4773 207.464 26.8523 208.805 27.6023C210.146 28.3409 211.192 29.4034 211.942 30.7898C212.703 32.1648 213.084 33.8125 213.084 35.733V53H211.021V35.8182C211.021 33.5795 210.357 31.7841 209.027 30.4318C207.697 29.0795 205.942 28.4034 203.76 28.4034C202.294 28.4034 200.987 28.7216 199.839 29.358C198.692 29.9943 197.788 30.8864 197.129 32.0341C196.482 33.1705 196.158 34.5 196.158 36.0227ZM231.42 53.5455C229.261 53.5455 227.341 52.9659 225.659 51.8068C223.977 50.6364 222.653 49.0284 221.688 46.983C220.722 44.9375 220.239 42.608 220.239 39.9943C220.239 37.3693 220.722 35.0398 221.688 33.0057C222.653 30.9602 223.977 29.3523 225.659 28.1818C227.341 27.0114 229.261 26.4261 231.42 26.4261C233.58 26.4261 235.5 27.0114 237.182 28.1818C238.864 29.3523 240.188 30.9602 241.153 33.0057C242.119 35.0511 242.602 37.3807 242.602 39.9943C242.602 42.608 242.119 44.9375 241.153 46.983C240.188 49.0284 238.864 50.6364 237.182 51.8068C235.5 52.9659 233.58 53.5455 231.42 53.5455ZM231.42 51.6193C233.25 51.6193 234.847 51.1023 236.21 50.0682C237.585 49.0341 238.648 47.6364 239.398 45.875C240.159 44.1136 240.54 42.1534 240.54 39.9943C240.54 37.8352 240.159 35.8807 239.398 34.1307C238.636 32.3693 237.574 30.9716 236.21 29.9375C234.847 28.892 233.25 28.3693 231.42 28.3693C229.591 28.3693 227.994 28.892 226.631 29.9375C225.267 30.9716 224.205 32.3693 223.443 34.1307C222.682 35.8807 222.301 37.8352 222.301 39.9943C222.301 42.1534 222.676 44.1136 223.426 45.875C224.188 47.6364 225.25 49.0341 226.614 50.0682C227.989 51.1023 229.591 51.6193 231.42 51.6193ZM251.845 36.0227V53H249.766V26.8182H251.794V30.9602H251.999C252.612 29.608 253.595 28.5227 254.947 27.7045C256.3 26.8864 257.908 26.4773 259.771 26.4773C261.533 26.4773 263.078 26.8523 264.408 27.6023C265.749 28.3523 266.794 29.4205 267.544 30.8068C268.305 32.1818 268.686 33.8239 268.686 35.733V53H266.607V35.8182C266.607 33.5909 265.942 31.8011 264.612 30.4489C263.294 29.0852 261.55 28.4034 259.379 28.4034C257.925 28.4034 256.629 28.7216 255.493 29.358C254.357 29.9943 253.464 30.8864 252.817 32.0341C252.169 33.1705 251.845 34.5 251.845 36.0227ZM278.061 62.8182C277.538 62.8182 277.021 62.7614 276.51 62.6477C275.999 62.5341 275.538 62.3864 275.129 62.2045L275.743 60.3807C276.811 60.7898 277.777 60.9375 278.641 60.8239C279.516 60.7102 280.288 60.3125 280.959 59.6307C281.629 58.9489 282.197 57.9489 282.663 56.6307L283.857 53.358L274.26 26.8182H276.493L284.811 50.3239H284.982L293.3 26.8182H295.533L284.487 57.4489C284.067 58.6307 283.538 59.6193 282.902 60.4148C282.266 61.2102 281.538 61.8068 280.72 62.2045C279.913 62.6136 279.027 62.8182 278.061 62.8182Z" fill="black"/>
<path fill-rule="evenodd" clip-rule="evenodd" d="M95.9422 17.5164C99.1455 23.0648 94.8287 31.5543 86.3002 36.4782C78.492 40.9863 69.8606 40.9427 66 36.6451V88.6442V118H64V32H64.0306C63.5998 26.774 67.7524 20.3968 74.6998 16.3857C83.2283 11.4618 92.7388 11.968 95.9422 17.5164ZM94.3879 18.2995C95.9417 20.9907 91.0694 26.7126 83.5054 31.0797C75.9414 35.4468 68.5499 36.8054 66.9962 34.1142C65.4424 31.423 70.3147 25.7011 77.8787 21.334C85.4427 16.9669 92.8342 15.6083 94.3879 18.2995Z" fill="black"/>
<path fill-rule="evenodd" clip-rule="evenodd" d="M162.942 67.5164C166.146 73.0648 161.829 81.5543 153.3 86.4782C145.492 90.9863 136.861 90.9427 133 86.6451V138.644V168H131V82H131.031C130.6 76.774 134.752 70.3968 141.7 66.3857C150.228 61.4618 159.739 61.968 162.942 67.5164ZM161.388 68.2995C162.942 70.9907 158.069 76.7126 150.505 81.0797C142.941 85.4468 135.55 86.8054 133.996 84.1142C132.442 81.423 137.315 75.7011 144.879 71.334C152.443 66.9669 159.834 65.6083 161.388 68.2995Z" fill="black"/>
<path d="M54 27L342 27" stroke="black" stroke-opacity="0.1" stroke-width="2"/>
<path d="M36 53L324 53" stroke="black" stroke-opacity="0.1" stroke-width="2"/>
<path d="M18 79L306 79" stroke="black" stroke-opacity="0.1" stroke-width="2"/>
<path d="M0 105L288 105" stroke="black" stroke-opacity="0.1" stroke-width="2"/>
<path d="M72 1L360 1.00003" stroke="black" stroke-opacity="0.1" stroke-width="2"/>
</svg>
